<svg xmlns="http://www.w3.org/2000/svg" width="458.103" height="626.807" viewBox="0 0 458.103 626.807">
  <path id="Union_1" data-name="Union 1" d="M250.779,623.5s12.382-110.972,18.546-220.174l112.6,40.6A1420.391,1420.391,0,0,1,253.093,625.588ZM75.148,443.933l112.629-40.6c6.191,109.2,18.547,220.173,18.547,220.173l-2.341,2.086A1423.012,1423.012,0,0,1,75.148,443.933ZM272.185,272.156c-2.705-102.294-18.078-195.1-43.648-195.1-25.542,0-40.916,92.811-43.621,195.1L47.809,393.5C19.821,337.288,0,279.584,0,229,0,102.525,102.326,0,228.551,0S457.1,102.525,457.1,229c0,50.587-19.848,108.289-47.837,164.531Z" transform="translate(0.5 0.5)" fill="none" stroke="#0768b3" stroke-width="1" opacity="0.15"/>
</svg>
